<?xml version="1.0" standalone="no"?>
<!DOCTYPE svg PUBLIC "-//W3C//DTD SVG 20010904//EN"
 "http://www.w3.org/TR/2001/REC-SVG-20010904/DTD/svg10.dtd">
<svg version="1.0" xmlns="http://www.w3.org/2000/svg"
 width="103.000000pt" height="103.000000pt" viewBox="0 0 103.000000 103.000000"
 preserveAspectRatio="xMidYMid meet">
<metadata>
Created by potrace 1.14, written by Peter Selinger 2001-2017
</metadata>
<g transform="translate(0.000000,103.000000) scale(0.100000,-0.100000)"
fill="#000000" stroke="none">
<path d="M590 952 c-82 -45 -102 -161 -45 -258 l29 -49 7 54 c10 73 42 106
104 106 35 0 50 -6 74 -29 17 -17 31 -36 31 -43 0 -8 5 -11 10 -8 6 3 10 28
10 54 0 56 -37 137 -76 165 -39 28 -102 31 -144 8z"/>
<path d="M230 882 c-96 -17 -142 -145 -91 -254 26 -55 51 -71 47 -30 -10 115
106 166 186 82 21 -23 38 -35 39 -28 0 7 2 22 4 33 6 27 -21 115 -43 141 -37
43 -92 65 -142 56z"/>
<path d="M933 649 c-202 -91 -354 -139 -532 -169 -115 -19 -163 -24 -316 -36
-44 -3 -82 -7 -83 -9 -10 -10 25 -81 68 -138 121 -159 260 -230 440 -223 210
9 417 155 493 350 20 51 32 181 21 223 -9 32 -23 33 -91 2z m70 -104 c-2 -27
-9 -55 -16 -62 -23 -23 -284 -132 -363 -152 -80 -20 -175 -36 -274 -46 -30 -4
-66 -8 -80 -10 -128 -18 -136 -17 -164 16 -30 35 -80 118 -75 123 2 2 47 7 99
10 307 21 481 62 761 180 l104 43 6 -26 c3 -14 4 -48 2 -76z m-45 -157 c-106
-204 -362 -329 -572 -281 -71 16 -163 64 -202 104 l-28 29 30 1 c16 0 38 2 49
5 11 2 47 6 80 10 33 3 71 7 85 9 52 5 177 28 227 41 63 15 228 81 298 117 28
14 54 26 58 27 5 0 -7 -28 -25 -62z"/>
</g>
</svg>
